<svg width="125" height="125" viewBox="0 0 125 125" fill="none" xmlns="http://www.w3.org/2000/svg">
<path d="M17.4629 46.6168C20.8561 32.1511 32.1511 20.8561 46.6168 17.4629C57.0638 15.0124 67.9362 15.0124 78.3832 17.4629C92.8489 20.8561 104.144 32.1511 107.537 46.6169C109.988 57.0638 109.988 67.9362 107.537 78.3832C104.144 92.8489 92.8489 104.144 78.3832 107.537C67.9362 109.988 57.0638 109.988 46.6169 107.537C32.1511 104.144 20.8561 92.849 17.4629 78.3832C15.0124 67.9362 15.0124 57.0638 17.4629 46.6168Z" fill="#016D01" fill-opacity="0.1" stroke="#016D01" stroke-width="1.5"/>
<path d="M62.5001 80.7292L62.5001 44.2709M62.5001 44.2709L49.4792 57.2917M62.5001 44.2709L75.5209 57.2917" stroke="#016D01" stroke-width="1.5" stroke-linecap="round" stroke-linejoin="round"/>
</svg>
